HIERARCHY
ROOT hip
{
  OFFSET 5.51535 103.731 -2.80141
  CHANNELS 6 Xposition Yposition Zposition Zrotation Xrotation Yrotation
  JOINT abdomen
  {
    OFFSET 0 -1.186 -1.5018
    CHANNELS 6 Xposition Yposition Zposition Zrotation Xrotation Yrotation
    JOINT abdomen2
    {
      OFFSET 0 9.964 0.2134
      CHANNELS 6 Xposition Yposition Zposition Zrotation Xrotation Yrotation
      JOINT chest
      {
        OFFSET 0 13.134 -3.2573
        CHANNELS 6 Xposition Yposition Zposition Zrotation Xrotation Yrotation
        JOINT neck
        {
          OFFSET 0 20.686 -1.6905
          CHANNELS 6 Xposition Yposition Zposition Zrotation Xrotation Yrotation
          JOINT head
          {
            OFFSET 0 7.23801 -0.1237
            CHANNELS 6 Xposition Yposition Zposition Zrotation Xrotation Yrotation
            End Site
            {
              OFFSET 0 0 0
            }
          }
        }
        JOINT lCollar
        {
          OFFSET 1.7069 20.075 5.0056
          CHANNELS 6 Xposition Yposition Zposition Zrotation Xrotation Yrotation
          JOINT lShldr
          {
            OFFSET 13.6458 -0.0470195 -4.849
            CHANNELS 6 Xposition Yposition Zposition Zrotation Xrotation Yrotation
            JOINT lForeArm
            {
              OFFSET 28.3255 -0.97589 2.2888
              CHANNELS 6 Xposition Yposition Zposition Zrotation Xrotation Yrotation
              JOINT lHand
              {
                OFFSET 22.1583 -0.529998 10.8316
                CHANNELS 6 Xposition Yposition Zposition Zrotation Xrotation Yrotation
                JOINT lThumb1
                {
                  OFFSET 0.786 0.111997 2.5817
                  CHANNELS 6 Xposition Yposition Zposition Zrotation Xrotation Yrotation
                  JOINT lThumb2
                  {
                    OFFSET 0.360097 -0.877999 4.2331
                    CHANNELS 6 Xposition Yposition Zposition Zrotation Xrotation Yrotation
                    JOINT lThumb2_End
                    {
                      OFFSET 1.8127 -1.21601 2.2227
                      CHANNELS 6 Xposition Yposition Zposition Zrotation Xrotation Yrotation
                      End Site
                      {
                        OFFSET 0.0180981 -0.012195 0.0222007
                      }
                    }
                  }
                }
                JOINT lCarpal1
                {
                  OFFSET 0.9571 1.114 1.7695
                  CHANNELS 6 Xposition Yposition Zposition Zrotation Xrotation Yrotation
                  JOINT lIndex1
                  {
                    OFFSET 4.12461 0.486992 4.1451
                    CHANNELS 6 Xposition Yposition Zposition Zrotation Xrotation Yrotation
                    JOINT lIndex2
                    {
                      OFFSET 3.4052 -1.45401 2.7682
                      CHANNELS 6 Xposition Yposition Zposition Zrotation Xrotation Yrotation
                      JOINT lIndex2_End
                      {
                        OFFSET 1.45309 -1.79499 1.2713
                        CHANNELS 6 Xposition Yposition Zposition Zrotation Xrotation Yrotation
                        End Site
                        {
                          OFFSET 0.0144979 -0.0179083 0.0126995
                        }
                      }
                    }
                  }
                  JOINT lMid1
                  {
                    OFFSET 5.6954 0.209987 2.1184
                    CHANNELS 6 Xposition Yposition Zposition Zrotation Xrotation Yrotation
                    JOINT lMid2
                    {
                      OFFSET 3.9766 -1.53999 2.3863
                      CHANNELS 6 Xposition Yposition Zposition Zrotation Xrotation Yrotation
                      JOINT lMid2_End
                      {
                        OFFSET 1.4042 -1.926 1.125
                        CHANNELS 6 Xposition Yposition Zposition Zrotation Xrotation Yrotation
                        End Site
                        {
                          OFFSET 0.013999 -0.0193044 0.011301
                        }
                      }
                    }
                  }
                }
                JOINT lCarpal2
                {
                  OFFSET 2.0956 0.66 -0.3894
                  CHANNELS 6 Xposition Yposition Zposition Zrotation Xrotation Yrotation
                  JOINT lRing1
                  {
                    OFFSET 5.0395 -0.090013 2.4971
                    CHANNELS 6 Xposition Yposition Zposition Zrotation Xrotation Yrotation
                    JOINT lRing2
                    {
                      OFFSET 3.7921 -1.55199 1.4806
                      CHANNELS 6 Xposition Yposition Zposition Zrotation Xrotation Yrotation
                      JOINT lRing2_End
                      {
                        OFFSET 1.4655 -1.808 0.9609
                        CHANNELS 6 Xposition Yposition Zposition Zrotation Xrotation Yrotation
                        End Site
                        {
                          OFFSET 0.0147015 -0.0181014 0.00959957
                        }
                      }
                    }
                  }
                  JOINT lPinky1
                  {
                    OFFSET 4.9141 -1.269 0.3591
                    CHANNELS 6 Xposition Yposition Zposition Zrotation Xrotation Yrotation
                    JOINT lPinky2
                    {
                      OFFSET 3.1477 -1.685 0.8462
                      CHANNELS 6 Xposition Yposition Zposition Zrotation Xrotation Yrotation
                      JOINT lPinky2_End
                      {
                        OFFSET 0.805498 -1.58501 0.795499
                        CHANNELS 6 Xposition Yposition Zposition Zrotation Xrotation Yrotation
                        End Site
                        {
                          OFFSET 0.00809703 -0.0157944 0.00799848
                        }
                      }
                    }
                  }
                }
              }
            }
          }
        }
        JOINT rCollar
        {
          OFFSET -1.7069 20.075 5.0056
          CHANNELS 6 Xposition Yposition Zposition Zrotation Xrotation Yrotation
          JOINT rShldr
          {
            OFFSET -13.6458 -0.0470107 -4.849
            CHANNELS 6 Xposition Yposition Zposition Zrotation Xrotation Yrotation
            JOINT rForeArm
            {
              OFFSET -28.3255 -0.975895 2.2888
              CHANNELS 6 Xposition Yposition Zposition Zrotation Xrotation Yrotation
              JOINT rHand
              {
                OFFSET -22.1583 -0.530007 10.8316
                CHANNELS 6 Xposition Yposition Zposition Zrotation Xrotation Yrotation
                JOINT rThumb1
                {
                  OFFSET -0.785997 0.112005 2.5817
                  CHANNELS 6 Xposition Yposition Zposition Zrotation Xrotation Yrotation
                  JOINT rThumb2
                  {
                    OFFSET -0.360106 -0.877994 4.2331
                    CHANNELS 6 Xposition Yposition Zposition Zrotation Xrotation Yrotation
                    JOINT rThumb2_End
                    {
                      OFFSET -1.8127 -1.216 2.2227
                      CHANNELS 6 Xposition Yposition Zposition Zrotation Xrotation Yrotation
                      End Site
                      {
                        OFFSET -0.0180972 -0.0121973 0.0222005
                      }
                    }
                  }
                }
                JOINT rCarpal1
                {
                  OFFSET -0.9571 1.114 1.7695
                  CHANNELS 6 Xposition Yposition Zposition Zrotation Xrotation Yrotation
                  JOINT rIndex1
                  {
                    OFFSET -4.1246 0.487011 4.1451
                    CHANNELS 6 Xposition Yposition Zposition Zrotation Xrotation Yrotation
                    JOINT rIndex2
                    {
                      OFFSET -3.4052 -1.45401 2.7682
                      CHANNELS 6 Xposition Yposition Zposition Zrotation Xrotation Yrotation
                      JOINT rIndex2_End
                      {
                        OFFSET -1.4531 -1.795 1.2713
                        CHANNELS 6 Xposition Yposition Zposition Zrotation Xrotation Yrotation
                        End Site
                        {
                          OFFSET -0.0145077 -0.0180048 0.0127017
                        }
                      }
                    }
                  }
                  JOINT rMid1
                  {
                    OFFSET -5.6954 0.210002 2.1184
                    CHANNELS 6 Xposition Yposition Zposition Zrotation Xrotation Yrotation
                    JOINT rMid2
                    {
                      OFFSET -3.9766 -1.54 2.3863
                      CHANNELS 6 Xposition Yposition Zposition Zrotation Xrotation Yrotation
                      JOINT rMid2_End
                      {
                        OFFSET -1.4042 -1.926 1.125
                        CHANNELS 6 Xposition Yposition Zposition Zrotation Xrotation Yrotation
                        End Site
                        {
                          OFFSET -0.0139948 -0.0192916 0.0112994
                        }
                      }
                    }
                  }
                }
                JOINT rCarpal2
                {
                  OFFSET -2.0956 0.66 -0.3894
                  CHANNELS 6 Xposition Yposition Zposition Zrotation Xrotation Yrotation
                  JOINT rRing1
                  {
                    OFFSET -5.03951 -0.0899879 2.4971
                    CHANNELS 6 Xposition Yposition Zposition Zrotation Xrotation Yrotation
                    JOINT rRing2
                    {
                      OFFSET -3.7921 -1.55201 1.4806
                      CHANNELS 6 Xposition Yposition Zposition Zrotation Xrotation Yrotation
                      JOINT rRing2_End
                      {
                        OFFSET -1.4655 -1.808 0.960901
                        CHANNELS 6 Xposition Yposition Zposition Zrotation Xrotation Yrotation
                        End Site
                        {
                          OFFSET -0.0146934 -0.0180999 0.00959832
                        }
                      }
                    }
                  }
                  JOINT rPinky1
                  {
                    OFFSET -4.91411 -1.26899 0.359202
                    CHANNELS 6 Xposition Yposition Zposition Zrotation Xrotation Yrotation
                    JOINT rPinky2
                    {
                      OFFSET -3.14769 -1.68501 0.846199
                      CHANNELS 6 Xposition Yposition Zposition Zrotation Xrotation Yrotation
                      JOINT rPinky2_End
                      {
                        OFFSET -0.805498 -1.585 0.7955
                        CHANNELS 6 Xposition Yposition Zposition Zrotation Xrotation Yrotation
                        End Site
                        {
                          OFFSET -0.00810035 -0.0158035 0.00800029
                        }
                      }
                    }
                  }
                }
              }
            }
          }
        }
      }
    }
  }
  JOINT lThigh
  {
    OFFSET 8.367 -8.2066 0.5982
    CHANNELS 6 Xposition Yposition Zposition Zrotation Xrotation Yrotation
    JOINT lShin
    {
      OFFSET 2.1923 -43.463 -0.4932
      CHANNELS 6 Xposition Yposition Zposition Zrotation Xrotation Yrotation
      JOINT lFoot
      {
        OFFSET 0.733301 -45.8593 -2.6451
        CHANNELS 6 Xposition Yposition Zposition Zrotation Xrotation Yrotation
        End Site
        {
          OFFSET 2.6618 -4.2699 12.3931
        }
      }
    }
  }
  JOINT rThigh
  {
    OFFSET -8.367 -8.2066 0.5982
    CHANNELS 6 Xposition Yposition Zposition Zrotation Xrotation Yrotation
    JOINT rShin
    {
      OFFSET -2.1923 -43.463 -0.4931
      CHANNELS 6 Xposition Yposition Zposition Zrotation Xrotation Yrotation
      JOINT rFoot
      {
        OFFSET -0.733299 -45.8593 -2.6451
        CHANNELS 6 Xposition Yposition Zposition Zrotation Xrotation Yrotation
        End Site
        {
          OFFSET -2.6618 -4.2699 12.3931
        }
      }
    }
  }
}
MOTION
Frames:	4
Frame Time:	0.0333333
311.789 100.832 75.1691 9.01041 -3.92244 16.6537 -1.59161e-006 -1.18599 -1.5018 -2.49948 2.15308 2.46891 1.41172e-005 9.964 0.213407 -5.09466 4.19434 5.03447 1.47341e-005 13.134 -3.2573 -5.09466 4.19434 5.03447 -7.13926e-006 20.686 -1.69051 -0.157036 -6.8252 -10.9915 2.54794e-006 7.23801 -0.123699 -5.63803 -2.46093 -16.7204 1.7069 20.075 5.0056 5.9932 0.417054 4.92821 13.6458 -0.0470126 -4.849 -72.8108 23.9045 48.8097 28.3255 -0.975889 2.2888 -33.8796 0.479605 -84.3241 22.1583 -0.530003 10.8316 7.97922 36.2334 -20.7401 0.78601 0.112008 2.5817 -2.56363 -5.45146 -6.36148 0.360095 -0.877997 4.2331 -6.52814 -0.101111 -11.9237 1.8127 -1.21601 2.2227 -5.3071 -0.185345 -9.69302 0.9571 1.114 1.7695 1.98785e-015 -3.18055e-015 -3.18055e-015 4.12461 0.486991 4.1451 11.5172 -1.28333 -4.57324 3.40521 -1.454 2.7682 12.0034 -5.89972 -4.39618 1.4531 -1.79499 1.2713 7.13945 -3.37602 -2.74531 5.6954 0.209985 2.1184 13.9336 -0.574442 -2.58343 3.9766 -1.53999 2.3863 7.33331 -3.84562 -2.84503 1.40421 -1.92599 1.125 14.5563 -8.04148 -5.2036 2.0956 0.66 -0.3894 1.98785e-015 -3.18055e-015 -3.18055e-015 5.0395 -0.0900241 2.4971 15.1031 -4.19482 -1.77993 3.79211 -1.55198 1.4806 7.32193 -4.1786 -3.27081 1.4655 -1.808 0.960898 14.2712 -8.61194 -5.94119 4.9141 -1.269 0.359103 12.0986 -4.41874 3.39085 3.1477 -1.68501 0.846201 13.1384 -8.36308 -5.39191 0.8055 -1.585 0.795497 13.9125 -8.90376 -5.65628 -1.70689 20.075 5.0056 -1.64226 -0.0904145 3.90305 -13.6458 -0.0470106 -4.849 85.1671 -4.94706 -3.31267 -28.3255 -0.975893 2.2888 16.9145 -21.6429 20.9703 -22.1583 -0.530004 10.8316 -7.58773 6.3395 -0.369752 -0.786003 0.112008 2.5817 -0.888428 0.807913 -2.75014 -0.360108 -0.878001 4.23311 -0.888376 0.807505 -2.75015 -1.81269 -1.21601 2.2227 -0.888086 0.80734 -2.74953 -0.9571 1.114 1.7695 -1.19271e-015 -3.18055e-015 -0 -4.12461 0.487003 4.1451 5.30061 1.73473 -0.824801 -3.4052 -1.45401 2.7682 5.30023 1.72862 -0.822739 -1.4531 -1.79499 1.2713 5.2991 1.72823 -0.822809 -5.6954 0.209997 2.1184 5.23395 1.92669 -0.812638 -3.9766 -1.54 2.3863 5.23473 1.93057 -0.806014 -1.4042 -1.92601 1.125 5.23532 1.93024 -0.806347 -2.0956 0.66 -0.3894 -1.19271e-015 -3.18055e-015 -0 -5.03951 -0.0899772 2.4971 5.14397 2.07725 -1.01454 -3.7921 -1.55199 1.48059 5.14319 2.08372 -1.01869 -1.4655 -1.808 0.960896 5.14364 2.08356 -1.01902 -4.91411 -1.26897 0.3592 5.09649 2.22034 -0.947553 -3.14769 -1.685 0.846196 5.09742 2.22415 -0.952769 -0.805501 -1.585 0.795506 5.09627 2.22565 -0.950635 8.367 -8.2066 0.5982 -15.9629 -1.05297 -11.4332 2.19231 -43.463 -0.493203 -0.11576 16.6892 0.534364 0.733305 -45.8593 -2.6451 6.83279 -7.77808 -0.796517 -8.367 -8.2066 0.598202 -19.5489 -8.31759 -4.92003 -2.19229 -43.463 -0.493075 3.03435 22.9607 -1.43343 -0.733298 -45.8593 -2.6451 11.1436 -7.85656 -4.28033 
311.715 100.824 75.1824 8.99313 -4.06029 16.643 -9.74661e-006 -1.18599 -1.5018 -2.47796 2.21334 2.42464 1.19514e-005 9.96399 0.2134 -5.05284 4.31767 4.94805 -2.38556e-006 13.134 -3.25731 -5.05284 4.31767 4.94807 -4.97877e-007 20.686 -1.6905 -0.00634692 -7.03609 -10.9604 4.96638e-007 7.23802 -0.123696 -5.50074 -2.55719 -16.7639 1.70689 20.075 5.0056 5.45346 0.337595 3.75419 13.6458 -0.04701 -4.849 -72.8736 25.3001 47.9514 28.3255 -0.975898 2.28879 -34.0087 0.270126 -81.9766 22.1583 -0.529991 10.8316 10.3583 35.3856 -24.5102 0.786005 0.111997 2.5817 -0.882397 -8.70094 -5.84254 0.360097 -0.877997 4.2331 -6.1926 -0.129114 -11.3101 1.8127 -1.21601 2.2227 -4.67104 -0.210524 -8.5321 0.9571 1.114 1.7695 4.37326e-015 7.95139e-016 6.36111e-015 4.12461 0.486996 4.1451 10.9464 -0.723602 -3.55083 3.4052 -1.454 2.7682 12.0467 -5.92296 -4.41005 1.4531 -1.79499 1.2713 7.19987 -3.40633 -2.76694 5.69541 0.209995 2.1184 13.8447 0.107135 -2.16863 3.9766 -1.53999 2.3863 7.34505 -3.85212 -2.84924 1.40419 -1.92601 1.125 13.7791 -7.57312 -4.97313 2.0956 0.66 -0.3894 4.37326e-015 7.95139e-016 6.36111e-015 5.03951 -0.0900095 2.4971 14.8216 -3.60527 -1.83576 3.7921 -1.55199 1.4806 7.33314 -4.1854 -3.27546 1.4655 -1.80801 0.960903 13.5274 -8.11807 -5.67787 4.91411 -1.26899 0.359099 12.0271 -3.94377 2.62313 3.1477 -1.68501 0.846203 12.6627 -8.03315 -5.22608 0.805495 -1.58501 0.795497 13.1782 -8.39078 -5.40533 -1.70689 20.075 5.00561 -1.59771 -0.0913601 4.15185 -13.6458 -0.0470202 -4.84901 85.0462 -4.745 -2.99871 -28.3255 -0.975906 2.2888 17.0562 -21.5133 21.4078 -22.1583 -0.530024 10.8316 -7.65146 6.59103 -0.280615 -0.785999 0.111998 2.5817 -0.888283 0.807621 -2.7502 -0.360107 -0.878005 4.2331 -0.888398 0.807529 -2.75015 -1.8127 -1.21599 2.2227 -0.888117 0.807352 -2.74954 -0.9571 1.114 1.7695 7.95139e-016 1.59028e-015 -3.18055e-015 -4.1246 0.487015 4.1451 5.30059 1.73476 -0.824809 -3.40519 -1.454 2.7682 5.30025 1.72867 -0.822722 -1.45309 -1.795 1.2713 5.29911 1.72832 -0.822792 -5.6954 0.210007 2.1184 5.23395 1.9267 -0.812654 -3.9766 -1.54 2.3863 5.23485 1.93049 -0.80607 -1.4042 -1.926 1.125 5.2353 1.93031 -0.806294 -2.0956 0.66 -0.3894 7.95139e-016 1.59028e-015 -3.18055e-015 -5.03951 -0.0899921 2.4971 5.14397 2.07728 -1.01455 -3.79209 -1.552 1.4806 5.14319 2.08377 -1.01866 -1.4655 -1.80799 0.960899 5.14363 2.08364 -1.01896 -4.91411 -1.26899 0.359204 5.09649 2.22037 -0.947568 -3.1477 -1.685 0.846197 5.09739 2.22421 -0.952744 -0.805498 -1.58499 0.795503 5.09629 2.22568 -0.950616 8.36702 -8.2066 0.598202 -15.8745 -0.998314 -11.4093 2.19231 -43.463 -0.493192 -0.117923 16.8391 0.531632 0.7333 -45.8593 -2.6451 6.78899 -7.86823 -0.774266 -8.367 -8.20661 0.598199 -19.4265 -8.24278 -4.81139 -2.19231 -43.463 -0.493134 3.05869 23.0521 -1.45009 -0.733286 -45.8593 -2.64511 11.0782 -7.92777 -4.35638 
311.64 100.818 75.1966 8.96063 -4.25133 16.5679 8.92574e-006 -1.186 -1.5018 -2.44746 2.29096 2.39297 -9.46215e-006 9.964 0.213393 -4.9943 4.4755 4.8874 9.39227e-006 13.134 -3.2573 -4.9943 4.4755 4.8874 1.14223e-005 20.686 -1.69049 0.125833 -7.30804 -11.1213 1.38031e-005 7.238 -0.123697 -5.25584 -2.61919 -16.6571 1.70689 20.075 5.0056 4.70104 0.283026 2.65127 13.6458 -0.0470092 -4.84901 -72.8359 26.8052 47.8686 28.3255 -0.975922 2.2888 -33.8014 0.327927 -80.6866 22.1583 -0.529999 10.8316 11.9346 33.8692 -27.5124 0.786004 0.111987 2.5817 1.11882 -12.0881 -5.08556 0.360099 -0.877996 4.2331 -5.80913 -0.156715 -10.6093 1.8127 -1.216 2.2227 -3.9446 -0.223498 -7.20684 0.9571 1.114 1.7695 2.38542e-015 5.36719e-015 -0 4.12461 0.486995 4.1451 10.2827 -0.0987201 -2.37874 3.4052 -1.45401 2.7682 12.0805 -5.94101 -4.4208 1.4531 -1.79499 1.2713 7.24691 -3.42997 -2.78379 5.6954 0.209982 2.1184 13.7026 0.846769 -1.72339 3.9766 -1.54 2.3863 7.35452 -3.85735 -2.8526 1.40421 -1.92599 1.125 12.894 -7.04426 -4.70355 2.0956 0.66 -0.3894 2.38542e-015 5.36719e-015 -0 5.03951 -0.090003 2.4971 14.4922 -2.94142 -1.9031 3.79211 -1.55199 1.4806 7.34224 -4.1909 -3.27922 1.46549 -1.80801 0.960904 12.679 -7.56009 -5.37071 4.9141 -1.26901 0.359106 11.9477 -3.39623 1.75122 3.1477 -1.68501 0.846201 12.1195 -7.65853 -5.03369 0.805507 -1.585 0.795502 12.339 -7.80959 -5.11144 -1.7069 20.075 5.0056 -1.48645 -0.0858898 4.37677 -13.6458 -0.0470214 -4.849 84.826 -4.36211 -2.7372 -28.3255 -0.975894 2.2888 17.2816 -21.7739 21.9928 -22.1583 -0.529997 10.8316 -7.59815 7.01801 -0.171259 -0.786004 0.111999 2.5817 -0.888282 0.80773 -2.75022 -0.360104 -0.878008 4.2331 -0.888427 0.807541 -2.75014 -1.81269 -1.21601 2.2227 -0.888122 0.807375 -2.74952 -0.9571 1.114 1.7695 3.97569e-016 -1.59028e-015 -0 -4.12461 0.487005 4.1451 5.30058 1.73477 -0.82482 -3.4052 -1.45399 2.7682 5.30018 1.72878 -0.822709 -1.4531 -1.79499 1.2713 5.29913 1.72816 -0.822828 -5.6954 0.209999 2.1184 5.23392 1.92673 -0.812644 -3.9766 -1.54001 2.3863 5.23484 1.9305 -0.806056 -1.4042 -1.92601 1.125 5.2353 1.93016 -0.806401 -2.0956 0.66 -0.3894 3.97569e-016 -1.59028e-015 -0 -5.03951 -0.0899769 2.4971 5.14395 2.07728 -1.01456 -3.7921 -1.55199 1.4806 5.14318 2.08384 -1.01861 -1.46551 -1.80802 0.960901 5.14364 2.0835 -1.01909 -4.91411 -1.269 0.359206 5.09645 2.22043 -0.947565 -3.1477 -1.685 0.846195 5.09734 2.2243 -0.95269 -0.805501 -1.585 0.795505 5.09627 2.22568 -0.95061 8.36701 -8.2066 0.598207 -15.7509 -0.902632 -11.2983 2.19231 -43.463 -0.493199 -0.120247 16.9875 0.527903 0.733293 -45.8594 -2.6451 6.74612 -7.97217 -0.699899 -8.36701 -8.20659 0.598197 -19.3096 -8.14675 -4.89608 -2.19232 -43.4631 -0.49314 3.08092 23.1391 -1.47173 -0.733297 -45.8593 -2.64511 10.988 -7.92846 -4.21889 
311.571 100.796 75.2424 8.92696 -4.36207 16.319 -1.27998e-005 -1.18599 -1.5018 -2.43541 2.32812 2.34423 -1.29756e-005 9.964 0.213397 -4.97009 4.55245 4.79113 -1.58666e-006 13.134 -3.2573 -4.97009 4.55245 4.79112 -2.98229e-006 20.686 -1.6905 0.297941 -7.51385 -11.0394 8.64622e-006 7.23801 -0.123695 -4.86711 -2.63521 -16.6597 1.70689 20.075 5.00559 4.18487 0.2299 2.1244 13.6458 -0.0470167 -4.84901 -72.2687 27.0504 46.185 28.3255 -0.975893 2.2888 -33.8874 1.57219 -78.0882 22.1583 -0.529999 10.8316 13.5982 32.4479 -29.7177 0.786005 0.112005 2.5817 3.37869 -15.4324 -4.12549 0.360099 -0.878 4.2331 -5.40114 -0.18094 -9.8641 1.81269 -1.21602 2.2227 -3.17204 -0.218808 -5.79762 0.9571 1.114 1.7695 2.18663e-015 1.59028e-015 -6.36111e-015 4.1246 0.486995 4.1451 9.56582 0.557693 -1.12648 3.4052 -1.454 2.7682 12.1059 -5.95465 -4.42892 1.45311 -1.79498 1.2713 7.2824 -3.44777 -2.79649 5.6954 0.20998 2.11841 13.5222 1.60841 -1.26938 3.9766 -1.54 2.3863 7.36147 -3.86122 -2.85512 1.4042 -1.926 1.125 11.9502 -6.48595 -4.40793 2.0956 0.66 -0.3894 2.18663e-015 1.59028e-015 -6.36111e-015 5.0395 -0.0900227 2.4971 14.1365 -2.24217 -1.97729 3.79211 -1.55198 1.48059 7.34898 -4.19498 -3.28202 1.4655 -1.80801 0.960901 11.7738 -6.97121 -5.03505 4.9141 -1.269 0.359102 11.8714 -2.81109 0.825795 3.14769 -1.68502 0.846202 11.5408 -7.26206 -4.82537 0.805494 -1.58501 0.795499 11.4443 -7.19621 -4.78992 -1.70689 20.075 5.0056 -1.44062 -0.0814856 4.36365 -13.6458 -0.0470125 -4.84901 84.7991 -4.30962 -2.17921 -28.3255 -0.975891 2.28881 17.3452 -21.2126 22.3158 -22.1583 -0.529998 10.8316 -7.86851 7.6814 -0.245577 -0.786004 0.112004 2.5817 -0.888414 0.807917 -2.75013 -0.360106 -0.877989 4.2331 -0.888477 0.807601 -2.75008 -1.8127 -1.21601 2.2227 -0.888138 0.807415 -2.74949 -0.9571 1.114 1.7695 4.41391e-032 1.59028e-015 -1.59028e-015 -4.12461 0.487019 4.1451 5.30053 1.73484 -0.824824 -3.40519 -1.454 2.7682 5.30025 1.72858 -0.822727 -1.4531 -1.795 1.2713 5.29912 1.72818 -0.822824 -5.6954 0.210006 2.1184 5.23389 1.92682 -0.812661 -3.9766 -1.54001 2.38631 5.23483 1.93054 -0.806041 -1.4042 -1.92601 1.125 5.23532 1.93019 -0.806377 -2.0956 0.66 -0.3894 4.41391e-032 1.59028e-015 -1.59028e-015 -5.03951 -0.0899747 2.4971 5.14391 2.07734 -1.01455 -3.7921 -1.55201 1.4806 5.14321 2.0837 -1.01866 -1.4655 -1.808 0.960898 5.14363 2.0835 -1.01909 -4.91411 -1.26899 0.359205 5.0965 2.2203 -0.947559 -3.1477 -1.68502 0.8462 5.09745 2.22414 -0.952786 -0.8055 -1.58501 0.795504 5.09627 2.2257 -0.950575 8.36699 -8.2066 0.598202 -15.6419 -0.950894 -11.0041 2.19229 -43.463 -0.493204 -0.123154 17.2191 0.526475 0.733304 -45.8593 -2.6451 6.70051 -8.14178 -0.766136 -8.36699 -8.2066 0.598205 -19.2428 -8.23917 -4.8829 -2.19228 -43.463 -0.4931 3.13128 23.3266 -1.49365 -0.733289 -45.8593 -2.6451 10.9043 -7.95903 -4.05067 
